<svg xmlns="http://www.w3.org/2000/svg" version="1.1" xmlns:xlink="http://www.w3.org/1999/xlink" xmlns:svgjs="http://svgjs.dev/svgjs" viewBox="0 0 1422 800"><defs><filter id="llleaves-blur-2" x="-100%" y="-100%" width="400%" height="400%"><feGaussianBlur in="SourceGraphic" stdDeviation="2"></feGaussianBlur></filter><filter id="llleaves-blur-3" x="-100%" y="-100%" width="400%" height="400%"><feGaussianBlur in="SourceGraphic" stdDeviation="4"></feGaussianBlur></filter><filter id="llleaves-blur-4" x="-100%" y="-100%" width="400%" height="400%"><feGaussianBlur in="SourceGraphic" stdDeviation="12"></feGaussianBlur></filter></defs><g fill="hsl(190, 100%, 70%)"><path d="M1164 136H1214C1242 136 1264 158 1264 186H1214C1186 186 1164 164 1164 136Z " transform="matrix(-0.3845187952970447,-0.0747428822991026,0.0747428822991026,-0.3845187952970447,1668.7722134404567,313.64538515393474)" filter="url(#llleaves-blur-2)" opacity="0.60"></path><path d="M1300 142H1350C1378 142 1400 164 1400 192H1350C1322 192 1300 170 1300 142Z " transform="matrix(-0.3821155292925522,-0.13157292820222172,0.13157292820222172,-0.3821155292925522,1843.8832855351748,408.43674646485556)" opacity="0.62"></path><path d="M984 501H1034C1062 501 1084 523 1084 551H1034C1006 551 984 529 984 501Z " transform="matrix(-0.21612514123451598,0.216125141234516,-0.216125141234516,-0.21612514123451598,1371.155220325845,416.2084282528658)" filter="url(#llleaves-blur-2)" opacity="0.47"></path><path d="M787 42H837C865 42 887 64 887 92H837C809 92 787 70 787 42Z " transform="matrix(-0.07218690732730958,0.2517456632694647,-0.2517456632694647,-0.07218690732730958,914.2874008720123,-138.87459736561215)" filter="url(#llleaves-blur-3)" opacity="0.40"></path><path d="M1316 252H1366C1394 252 1416 274 1416 302H1366C1338 302 1316 280 1316 252Z " transform="matrix(-0.3822853839695176,-0.04693874301029561,0.04693874301029561,-0.3822853839695176,1875.1998026885094,447.01137431162016)" filter="url(#llleaves-blur-2)" opacity="0.59"></path><path d="M875 404H925C953 404 975 426 975 454H925C897 454 875 432 875 404Z " transform="matrix(-0.10170665166408974,0.25173279643877916,-0.25173279643877916,-0.10170665166408974,1127.0720224615193,239.7793168580238)" filter="url(#llleaves-blur-3)" opacity="0.42"></path><path d="M111 711H161C189 711 211 733 211 761H161C133 761 111 739 111 711Z " transform="matrix(-0.0392663187489357,0.24791777947680554,-0.24791777947680554,-0.0392663187489357,349.7893630135075,724.985248103451)" filter="url(#llleaves-blur-3)" opacity="0.38"></path><path d="M287 576H337C365 576 387 598 387 626H337C309 626 287 604 287 576Z " transform="matrix(-0.1366122134943706,0.24645495709717988,-0.24645495709717988,-0.1366122134943706,531.157745163008,600.0486197683672)" filter="url(#llleaves-blur-3)" opacity="0.43"></path><path d="M1198 253H1248C1276 253 1298 275 1298 303H1248C1220 303 1198 281 1198 253Z " transform="matrix(-0.3845244225444777,-0.08173318913420481,0.08173318913420481,-0.3845244225444777,1705.1646527561993,486.9008095068524)" filter="url(#llleaves-blur-2)" opacity="0.60"></path><path d="M192 473H242C270 473 292 495 292 523H242C214 523 192 501 192 473Z " transform="matrix(-0.08676478003143549,0.2519832179664452,-0.2519832179664452,-0.08676478003143549,388.48471931489706,480.22892170777516)" filter="url(#llleaves-blur-3)" opacity="0.41"></path><path d="M225 706H275C303 706 325 728 325 756H275C247 756 225 734 225 706Z " transform="matrix(-0.10625356285321134,0.25031770742494086,-0.25031770742494086,-0.10625356285321134,487.20197391226486,739.8339849038388)" filter="url(#llleaves-blur-3)" opacity="0.42"></path><path d="M1186 28H1236C1264 28 1286 50 1286 78H1236C1208 78 1186 56 1186 28Z " transform="matrix(-0.3220468034796054,-0.30031350268714274,0.30031350268714274,-0.3220468034796054,1618.133233458374,441.25596990572757)" opacity="0.68"></path><path d="M149 57H199C227 57 249 79 249 107H199C171 107 149 85 149 57Z " transform="matrix(-0.28881553900418877,0.1600930674702321,-0.1600930674702321,-0.28881553900418877,269.60192379439263,73.82435377176729)" filter="url(#llleaves-blur-2)" opacity="0.51"></path><path d="M401 168H451C479 168 501 190 501 218H451C423 218 401 196 401 168Z " transform="matrix(-0.162214622301757,0.24049306754662128,-0.24049306754662128,-0.162214622301757,570.5739566945904,115.8450486407129)" filter="url(#llleaves-blur-3)" opacity="0.44"></path><path d="M577 304H627C655 304 677 326 677 354H627C599 354 577 332 577 304Z " transform="matrix(-0.09174800063553624,0.25207556002624415,-0.25207556002624415,-0.09174800063553624,767.4588556471157,201.13371607263633)" filter="url(#llleaves-blur-3)" opacity="0.41"></path><path d="M1090 322H1140C1168 322 1190 344 1190 372H1140C1112 372 1090 350 1090 322Z " transform="matrix(-0.3538529616702645,0.0623938243460659,-0.0623938243460659,-0.3538529616702645,1565.0430333521863,398.65801794506666)" filter="url(#llleaves-blur-2)" opacity="0.55"></path><path d="M1216 626H1266C1294 626 1316 648 1316 676H1266C1238 676 1216 654 1216 626Z " transform="matrix(-0.3845244225444777,-0.08173318913420481,0.08173318913420481,-0.3845244225444777,1699.5996128149413,1004.7996165203581)" filter="url(#llleaves-blur-2)" opacity="0.60"></path><path d="M541 40H591C619 40 641 62 641 90H591C563 90 541 68 541 40Z " transform="matrix(-0.19208924094213622,0.22892304299148564,-0.22892304299148564,-0.19208924094213622,719.4047391912491,-57.80771774672915)" filter="url(#llleaves-blur-3)" opacity="0.46"></path><path d="M832 165H882C910 165 932 187 932 215H882C854 215 832 193 832 165Z " transform="matrix(-0.05785427373742916,0.25059439091790603,-0.25059439091790603,-0.05785427373742916,980.6404037108147,-20.0319407794816)" filter="url(#llleaves-blur-3)" opacity="0.39"></path><path d="M343 443H393C421 443 443 465 443 493H393C365 493 343 471 343 443Z " transform="matrix(-0.1570675024603673,0.2418627439925804,-0.2418627439925804,-0.1570675024603673,567.919292655452,446.4555327623678)" filter="url(#llleaves-blur-3)" opacity="0.44"></path><path d="M565 574H615C643 574 665 596 665 624H615C587 624 565 602 565 574Z " transform="matrix(-0.1112479756070928,0.24986704423592973,-0.24986704423592973,-0.1112479756070928,833.0878644956841,511.9693051835518)" filter="url(#llleaves-blur-3)" opacity="0.42"></path><path d="M965 614H1015C1043 614 1065 636 1065 664H1015C987 664 965 642 965 614Z " transform="matrix(-0.21612514123451598,0.216125141234516,-0.216125141234516,-0.21612514123451598,1372.4709836018897,557.736946895822)" filter="url(#llleaves-blur-2)" opacity="0.47"></path><path d="M962 144H1012C1040 144 1062 166 1062 194H1012C984 194 962 172 962 144Z " transform="matrix(-0.2399963613433987,0.20138085828713514,-0.20138085828713514,-0.2399963613433987,1288.9096827300452,5.761956480453591)" filter="url(#llleaves-blur-2)" opacity="0.48"></path><path d="M1053 42H1103C1131 42 1153 64 1153 92H1103C1075 92 1053 70 1053 42Z " transform="matrix(-0.377060080564965,-0.006581608188100296,0.006581608188100296,-0.377060080564965,1518.4563011145533,99.52253922932726)" filter="url(#llleaves-blur-2)" opacity="0.58"></path><path d="M694 317H744C772 317 794 339 794 367H744C716 367 694 345 694 317Z " transform="matrix(-0.039381011567635835,0.24864192143459588,-0.24864192143459588,-0.039381011567635835,858.3350097369529,170.4787164087921)" filter="url(#llleaves-blur-3)" opacity="0.38"></path><path d="M917 33H967C995 33 1017 55 1017 83H967C939 83 917 61 917 33Z " transform="matrix(-0.19174345049744615,0.2285109459867415,-0.2285109459867415,-0.19174345049744615,1165.6695514982614,-151.84896464032713)" filter="url(#llleaves-blur-3)" opacity="0.46"></path><path d="M1311 31H1361C1389 31 1411 53 1411 81H1361C1333 81 1311 59 1311 31Z " transform="matrix(-0.26334225048624166,-0.3760917101229084,0.3760917101229084,-0.26334225048624166,1698.347667144892,582.6079835045078)" opacity="0.71"></path><path d="M20 458H70C98 458 120 480 120 508H70C42 508 20 486 20 458Z " transform="matrix(-0.00839878639262224,0.24050977440823718,-0.24050977440823718,-0.00839878639262224,186.75413608666213,470.2209296190599)" filter="url(#llleaves-blur-3)" opacity="0.37"></path><path d="M1314 363H1364C1392 363 1414 385 1414 413H1364C1336 413 1314 391 1314 363Z " transform="matrix(-0.3822853839695176,-0.04693874301029561,0.04693874301029561,-0.3822853839695176,1867.2250314464272,600.351174446216)" filter="url(#llleaves-blur-2)" opacity="0.59"></path></g><g fill="none" stroke-width="3" stroke="hsl(190, 100%, 70%)"><path d="M139 224H189C217 224 239 246 239 274H189C161 274 139 252 139 224Z " transform="matrix(-0.0531935242312977,0.2502558557278352,-0.2502558557278352,-0.0531935242312977,261.3672841559462,214.9468308010323)" filter="url(#llleaves-blur-3)" opacity="0.39"></path><path d="M812 626H862C890 626 912 648 912 676H862C834 676 812 654 812 626Z " transform="matrix(-0.05785427373742916,0.25059439091790603,-0.25059439091790603,-0.05785427373742916,1075.0073324492207,472.65076723183137)" filter="url(#llleaves-blur-3)" opacity="0.39"></path><path d="M1320 595H1370C1398 595 1420 617 1420 645H1370C1342 645 1320 623 1320 595Z " transform="matrix(-0.3822853839695176,-0.04693874301029561,0.04693874301029561,-0.3822853839695176,1864.6289553718557,921.3230159852059)" filter="url(#llleaves-blur-2)" opacity="0.59"></path><path d="M283 41H333C361 41 383 63 383 91H333C305 91 283 69 283 41Z " transform="matrix(-0.3097350661744334,0.13790293630679554,-0.13790293630679554,-0.3097350661744334,445.2433708323348,40.520836577349684)" filter="url(#llleaves-blur-2)" opacity="0.52"></path><path d="M1096 593H1146C1174 593 1196 615 1196 643H1146C1118 643 1096 621 1096 593Z " transform="matrix(-0.3538529616702645,0.0623938243460659,-0.0623938243460659,-0.3538529616702645,1590.074877519992,765.1778076116318)" filter="url(#llleaves-blur-2)" opacity="0.55"></path><path d="M259 177H309C337 177 359 199 359 227H309C281 227 259 205 259 177Z " transform="matrix(-0.12148450938604408,0.24908015628658214,-0.24908015628658214,-0.12148450938604408,396.8529049701772,149.574102603427)" filter="url(#llleaves-blur-3)" opacity="0.42"></path><path d="M457 305H507C535 305 557 327 557 355H507C479 355 457 333 457 305Z " transform="matrix(-0.15181067501791998,0.242947865108207,-0.242947865108207,-0.15181067501791998,664.1408077197937,256.92295514605263)" filter="url(#llleaves-blur-3)" opacity="0.44"></path><path d="M482 441H532C560 441 582 463 582 491H532C504 491 482 469 482 441Z " transform="matrix(-0.15181067501791998,0.242947865108207,-0.242947865108207,-0.15181067501791998,725.976984249958,407.4955103207846)" filter="url(#llleaves-blur-3)" opacity="0.44"></path><path d="M615 440H665C693 440 715 462 715 490H665C637 490 615 468 615 440Z " transform="matrix(-0.07692003712480446,0.25159410484356404,-0.25159410484356404,-0.07692003712480446,833.1430834402522,333.45773754206397)" filter="url(#llleaves-blur-3)" opacity="0.40"></path><path d="M916 718H966C994 718 1016 740 1016 768H966C938 768 916 746 916 718Z " transform="matrix(-0.13644267439770782,0.2461491004704146,-0.2461491004704146,-0.13644267439770782,1280.6924051177039,606.5968760230764)" filter="url(#llleaves-blur-3)" opacity="0.43"></path><path d="M701 558H751C779 558 801 580 801 608H751C723 608 701 586 701 558Z " transform="matrix(-0.039381011567635835,0.24864192143459588,-0.24864192143459588,-0.039381011567635835,925.5333798836638,419.2290467465502)" filter="url(#llleaves-blur-3)" opacity="0.38"></path><path d="M1171 723H1221C1249 723 1271 745 1271 773H1221C1193 773 1171 751 1171 723Z " transform="matrix(-0.3832970483788025,-0.06070828848552329,0.06070828848552329,-0.3832970483788025,1643.5958962833465,1108.8310124281682)" filter="url(#llleaves-blur-2)" opacity="0.60"></path><path d="M233 340H283C311 340 333 362 333 390H283C255 390 233 368 233 340Z " transform="matrix(-0.10625356285321134,0.25031770742494086,-0.25031770742494086,-0.10625356285321134,404.4357214975622,332.9426392401639)" filter="url(#llleaves-blur-3)" opacity="0.42"></path><path d="M340 706H390C418 706 440 728 440 756H390C362 756 340 734 340 706Z " transform="matrix(-0.1570675024603673,0.2418627439925804,-0.2418627439925804,-0.1570675024603673,628.0579918181195,751.4898741414222)" filter="url(#llleaves-blur-3)" opacity="0.44"></path><path d="M1098 458H1148C1176 458 1198 480 1198 508H1148C1120 508 1098 486 1098 458Z " transform="matrix(-0.3538529616702645,0.0623938243460659,-0.0623938243460659,-0.3538529616702645,1584.3594171566137,582.2828701374541)" filter="url(#llleaves-blur-2)" opacity="0.55"></path><path d="M13 584H63C91 584 113 606 113 634H63C35 634 13 612 13 584Z " transform="matrix(-0.00839878639262224,0.24050977440823718,-0.24050977440823718,-0.00839878639262224,209.99957615735167,598.962745125388)" filter="url(#llleaves-blur-3)" opacity="0.37"></path><path d="M141 583H191C219 583 241 605 241 633H191C163 633 141 611 141 583Z " transform="matrix(-0.0531935242312977,0.2502558557278352,-0.2502558557278352,-0.0531935242312977,353.31552341070164,592.5427942886124)" filter="url(#llleaves-blur-3)" opacity="0.39"></path><path d="M1202 384H1252C1280 384 1302 406 1302 434H1252C1224 434 1202 412 1202 384Z " transform="matrix(-0.3845244225444777,-0.08173318913420481,0.08173318913420481,-0.3845244225444777,1699.9957026697962,668.6004416167157)" filter="url(#llleaves-blur-2)" opacity="0.60"></path><path d="M426 572H476C504 572 526 594 526 622H476C448 622 426 600 426 572Z " transform="matrix(-0.1615602264942958,0.23952288586452095,-0.23952288586452095,-0.1615602264942958,695.8978306724038,579.4385615455826)" filter="url(#llleaves-blur-3)" opacity="0.44"></path><path d="M1205 511H1255C1283 511 1305 533 1305 561H1255C1227 561 1205 539 1205 511Z " transform="matrix(-0.3845244225444777,-0.08173318913420481,0.08173318913420481,-0.3845244225444777,1693.7691609173855,844.6802428472671)" filter="url(#llleaves-blur-2)" opacity="0.60"></path><path d="M340 296H390C418 296 440 318 440 346H390C362 346 340 324 340 296Z " transform="matrix(-0.1570675024603673,0.2418627439925804,-0.2418627439925804,-0.1570675024603673,528.8942667811616,277.0921981326715)" filter="url(#llleaves-blur-3)" opacity="0.44"></path></g></svg>