<svg xmlns="http://www.w3.org/2000/svg" version="1.1" xmlns:xlink="http://www.w3.org/1999/xlink" xmlns:svgjs="http://svgjs.dev/svgjs" viewBox="0 0 1422 800"><defs><filter id="llleaves-blur-2" x="-100%" y="-100%" width="400%" height="400%"><feGaussianBlur in="SourceGraphic" stdDeviation="2"></feGaussianBlur></filter><filter id="llleaves-blur-3" x="-100%" y="-100%" width="400%" height="400%"><feGaussianBlur in="SourceGraphic" stdDeviation="4"></feGaussianBlur></filter><filter id="llleaves-blur-4" x="-100%" y="-100%" width="400%" height="400%"><feGaussianBlur in="SourceGraphic" stdDeviation="12"></feGaussianBlur></filter></defs><g fill="hsl(190, 100%, 70%)"><path d="M728 545H778C806 545 828 567 828 595H778C750 595 728 573 728 545Z " transform="matrix(-0.3653057311291817,0.03196011019485281,-0.03196011019485281,-0.3653057311291817,1080.4251216295695,753.3593010120383)" filter="url(#llleaves-blur-2)" opacity="0.56"></path><path d="M171 347H221C249 347 271 369 271 397H221C193 397 171 375 171 347Z " transform="matrix(-0.3850139361202352,-0.08183723845675862,0.08183723845675862,-0.3850139361202352,275.64462717665776,533.3112139356712)" filter="url(#llleaves-blur-2)" opacity="0.60"></path><path d="M377 727H427C455 727 477 749 477 777H427C399 777 377 755 377 727Z " transform="matrix(-0.3003191580983216,-0.3335382154269627,0.3335382154269627,-0.3003191580983216,304.4155425069074,1120.2608248772508)" opacity="0.69"></path><path d="M687 169H737C765 169 787 191 787 219H737C709 219 687 197 687 169Z " transform="matrix(-0.37943099091767496,-0.026532399547439883,0.026532399547439883,-0.37943099091767496,1011.4933547941232,287.1639907044921)" filter="url(#llleaves-blur-2)" opacity="0.58"></path><path d="M463 420H513C541 420 563 442 563 470H513C485 470 463 448 463 420Z " transform="matrix(-0.3344137398428579,-0.28060644576275684,0.28060644576275684,-0.3344137398428579,559.6843801749593,737.765220906366)" opacity="0.67"></path><path d="M538 488H588C616 488 638 510 638 538H588C560 538 538 516 538 488Z " transform="matrix(-0.3615564464234088,-0.21724503021137434,0.21724503021137434,-0.3615564464234088,689.1484899985293,826.2185347794968)" opacity="0.65"></path><path d="M135 732H185C213 732 235 754 235 782H185C157 782 135 760 135 732Z " transform="matrix(-0.375,4.592425496802574e-17,-4.592425496802574e-17,-0.375,254.37500000000006,1040.875)" filter="url(#llleaves-blur-2)" opacity="0.57"></path><path d="M770 120H820C848 120 870 142 870 170H820C792 170 770 148 770 120Z " transform="matrix(-0.37694059586258744,-0.16000179015071062,0.16000179015071062,-0.37694059586258744,1105.8910290354686,330.8578543236579)" opacity="0.63"></path><path d="M778 19H828C856 19 878 41 878 69H828C800 69 778 47 778 19Z " transform="matrix(-0.21407923614048743,-0.4201541578598384,0.4201541578598384,-0.21407923614048743,986.7708245784908,401.30712909812763)" opacity="0.72"></path><path d="M1334 89H1384C1412 89 1434 111 1434 139H1384C1356 139 1334 117 1334 89Z " transform="matrix(-0.06246727268057599,0.25054254623723865,-0.25054254623723865,-0.06246727268057599,1499.0165556609625,-225.6296149067527)" filter="url(#llleaves-blur-3)" opacity="0.39"></path><path d="M1146 104H1196C1224 104 1246 126 1246 154H1196C1168 154 1146 132 1146 104Z " transform="matrix(-0.24479520284165837,0.19823124666390812,-0.19823124666390812,-0.24479520284165837,1514.3468934182677,-76.50598984346018)" filter="url(#llleaves-blur-2)" opacity="0.48"></path><path d="M526 236H576C604 236 626 258 626 286H576C548 286 526 264 526 236Z " transform="matrix(-0.3615564464234088,-0.21724503021137434,0.21724503021137434,-0.3615564464234088,727.5555602547148,480.4993699182613)" opacity="0.65"></path><path d="M1208 180H1258C1286 180 1308 202 1308 230H1258C1230 230 1208 208 1208 180Z " transform="matrix(-0.19159333275774787,0.22833204263114393,-0.22833204263114393,-0.19159333275774787,1545.832481348631,-42.96507641464078)" filter="url(#llleaves-blur-3)" opacity="0.46"></path><path d="M-4 217H46C74 217 96 239 96 267H46C18 267 -4 245 -4 217Z " transform="matrix(-0.07214160570208748,0.2515876777273357,-0.2515876777273357,-0.07214160570208748,110.20273187231126,247.88523540444774)" filter="url(#llleaves-blur-3)" opacity="0.40"></path><path d="M655 367H705C733 367 755 389 755 417H705C677 417 655 395 655 367Z " transform="matrix(-0.38334230273218367,-0.06071545607095581,0.06071545607095581,-0.38334230273218367,951.4558646463747,585.0745792010399)" filter="url(#llleaves-blur-2)" opacity="0.60"></path><path d="M968 270H1018C1046 270 1068 292 1068 320H1018C990 320 968 298 968 270Z " transform="matrix(-0.2852108640255744,0.16466656912097108,-0.16466656912097108,-0.2852108640255744,1356.9212974687211,211.50663752239586)" filter="url(#llleaves-blur-2)" opacity="0.50"></path><path d="M902 534H952C980 534 1002 556 1002 584H952C924 584 902 562 902 534Z " transform="matrix(-0.30846689608408895,0.13733831060472385,-0.13733831060472385,-0.30846689608408895,1322.4326007000934,600.6869232153086)" filter="url(#llleaves-blur-2)" opacity="0.52"></path><path d="M466 662H516C544 662 566 684 566 712H516C488 712 466 690 466 662Z " transform="matrix(-0.3344137398428579,-0.28060644576275684,0.28060644576275684,-0.3344137398428579,495.78086151990067,1061.535165285626)" opacity="0.67"></path><path d="M1325 562H1375C1403 562 1425 584 1425 612H1375C1347 612 1325 590 1325 562Z " transform="matrix(-0.1167230411214474,0.2503133694678658,-0.2503133694678658,-0.1167230411214474,1682.4281294196276,311.3355421199741)" filter="url(#llleaves-blur-3)" opacity="0.42"></path><path d="M-6 324H44C72 324 94 346 94 374H44C16 374 -6 352 -6 324Z " transform="matrix(-0.07214160570208748,0.2515876777273357,-0.2515876777273357,-0.07214160570208748,134.978330177732,363.1075625700258)" filter="url(#llleaves-blur-3)" opacity="0.40"></path><path d="M328 365H378C406 365 428 387 428 415H378C350 415 328 393 328 365Z " transform="matrix(-0.3046750315644411,-0.32672397057548874,0.32672397057548874,-0.3046750315644411,365.7448134069181,632.3249231876669)" opacity="0.69"></path><path d="M626 557H676C704 557 726 579 726 607H676C648 607 626 585 626 557Z " transform="matrix(-0.3845856491475145,-0.09588797182409789,0.09588797182409789,-0.3845856491475145,880.173099222095,870.6491167569435)" filter="url(#llleaves-blur-2)" opacity="0.61"></path><path d="M584 648H634C662 648 684 670 684 698H634C606 698 584 676 584 648Z " transform="matrix(-0.3804676431213546,-0.13847889719758927,0.13847889719758927,-0.3804676431213546,782.0201879249612,1016.8503446439431)" opacity="0.62"></path><path d="M347 85H397C425 85 447 107 447 135H397C369 135 347 113 347 85Z " transform="matrix(-0.03528010228569071,-0.5045289682903203,0.5045289682903203,-0.03528010228569071,355.508014095484,314.1788116626832)" opacity="0.78"></path><path d="M499 319H549C577 319 599 341 599 369H549C521 369 499 347 499 319Z " transform="matrix(-0.34756046274928554,-0.25251745724057895,0.25251745724057895,-0.34756046274928554,652.9446887585987,602.1928832108321)" opacity="0.66"></path><path d="M533 83H583C611 83 633 105 633 133H583C555 133 533 111 533 83Z " transform="matrix(-0.15723756853915308,-0.4566510569307062,0.4566510569307062,-0.15723756853915308,625.3511883098099,391.20922359283026)" opacity="0.74"></path><path d="M1313 164H1363C1391 164 1413 186 1413 214H1363C1335 214 1313 192 1313 164Z " transform="matrix(-0.13682800530995476,0.24684425583769037,-0.24684425583769037,-0.13682800530995476,1596.150135590792,-121.58822770319051)" filter="url(#llleaves-blur-3)" opacity="0.43"></path><path d="M805 295H855C883 295 905 317 905 345H855C827 345 805 323 805 295Z " transform="matrix(-0.34649103774419676,0.07999375912522184,-0.07999375912522184,-0.34649103774419676,1176.8478401913592,362.48246802607827)" filter="url(#llleaves-blur-2)" opacity="0.55"></path><path d="M1160 372H1210C1238 372 1260 394 1260 422H1210C1182 422 1160 400 1160 372Z " transform="matrix(-0.21687438271511209,0.2168743827151121,-0.2168743827151121,-0.21687438271511209,1558.5171330231851,220.68112685261383)" filter="url(#llleaves-blur-2)" opacity="0.47"></path><path d="M1036 25H1086C1114 25 1136 47 1136 75H1086C1058 75 1036 53 1036 25Z " transform="matrix(-0.373260436104036,0.006515285147330731,-0.006515285147330731,-0.373260436104036,1491.6865978663495,61.587422135200626)" filter="url(#llleaves-blur-2)" opacity="0.57"></path><path d="M3 539H53C81 539 103 561 103 589H53C25 589 3 567 3 539Z " transform="matrix(-0.07214160570208748,0.2515876777273357,-0.2515876777273357,-0.07214160570208748,198.71895534042798,591.3537186964286)" filter="url(#llleaves-blur-3)" opacity="0.40"></path><path d="M558 392H608C636 392 658 414 658 442H608C580 442 558 420 558 392Z " transform="matrix(-0.3747218871670945,-0.17473568566430936,0.17473568566430936,-0.3747218871670945,762.9661264755764,679.4983238325785)" opacity="0.63"></path><path d="M84 159H134C162 159 184 181 184 209H134C106 209 84 187 84 159Z " transform="matrix(-0.29340010684657347,0.15600360406080885,-0.15600360406080885,-0.29340010684657347,202.02027746462966,217.08113671562114)" filter="url(#llleaves-blur-2)" opacity="0.51"></path><path d="M777 209H827C855 209 877 231 877 259H827C799 259 777 237 777 209Z " transform="matrix(-0.3564185329572725,0.05645114986372994,-0.05645114986372994,-0.3564185329572725,1134.967695823777,270.7168357746971)" filter="url(#llleaves-blur-2)" opacity="0.55"></path><path d="M1038 218H1088C1116 218 1138 240 1138 268H1088C1060 268 1038 246 1038 218Z " transform="matrix(-0.2634795302215983,0.1844903532251163,-0.1844903532251163,-0.2634795302215983,1419.496884714802,106.30002153492183)" filter="url(#llleaves-blur-2)" opacity="0.49"></path><path d="M1118 196H1168C1196 196 1218 218 1218 246H1168C1140 246 1118 224 1118 196Z " transform="matrix(-0.2308225631912577,0.20783356941260223,-0.20783356941260223,-0.2308225631912577,1483.5319726475739,29.26217739134853)" filter="url(#llleaves-blur-2)" opacity="0.48"></path><path d="M727 449H777C805 449 827 471 827 499H777C749 499 727 477 727 449Z " transform="matrix(-0.3653057311291817,0.03196011019485281,-0.03196011019485281,-0.3653057311291817,1075.9916453197345,622.3219109338315)" filter="url(#llleaves-blur-2)" opacity="0.56"></path><path d="M944 93H994C1022 93 1044 115 1044 143H994C966 143 944 121 944 93Z " transform="matrix(-0.384504601740338,-0.0608995461488521,0.0608995461488521,-0.384504601740338,1369.0114276843315,223.90569187731887)" filter="url(#llleaves-blur-2)" opacity="0.60"></path><path d="M392 611H442C470 611 492 633 492 661H442C414 661 392 639 392 611Z " transform="matrix(-0.3003191580983216,-0.3335382154269627,0.3335382154269627,-0.3003191580983216,362.6107628679099,974.42687576925)" opacity="0.69"></path><path d="M1321 736H1371C1399 736 1421 758 1421 786H1371C1343 786 1321 764 1321 736Z " transform="matrix(-0.1167230411214474,0.2503133694678658,-0.2503133694678658,-0.1167230411214474,1721.5157635425503,506.64660475297745)" filter="url(#llleaves-blur-3)" opacity="0.42"></path><path d="M81 273H131C159 273 181 295 181 323H131C103 323 81 301 81 273Z " transform="matrix(-0.29340010684657347,0.15600360406080885,-0.15600360406080885,-0.29340010684657347,215.92448800702215,364.99675970831294)" filter="url(#llleaves-blur-2)" opacity="0.51"></path><path d="M913 732H963C991 732 1013 754 1013 782H963C935 782 913 760 913 732Z " transform="matrix(-0.30846689608408895,0.13733831060472385,-0.13733831060472385,-0.30846689608408895,1364.0187220567536,858.2526472233062)" filter="url(#llleaves-blur-2)" opacity="0.52"></path><path d="M256 731H306C334 731 356 753 356 781H306C278 781 256 759 256 731Z " transform="matrix(-0.33733417979194313,-0.2731678326464495,0.2731678326464495,-0.33733417979194313,202.70937753561878,1094.6139967125225)" opacity="0.67"></path><path d="M82 377H132C160 377 182 399 182 427H132C104 427 82 405 82 377Z " transform="matrix(-0.29340010684657347,0.15600360406080885,-0.15600360406080885,-0.29340010684657347,233.44226293619283,499.35436721629577)" filter="url(#llleaves-blur-2)" opacity="0.51"></path><path d="M193 642H243C271 642 293 664 293 692H243C215 692 193 670 193 642Z " transform="matrix(-0.3772772977639525,-0.16014471162840996,0.16014471162840996,-0.3772772977639525,227.861860700491,957.5591225342599)" opacity="0.63"></path><path d="M598 15H648C676 15 698 37 698 65H648C620 65 598 43 598 15Z " transform="matrix(-0.026591245768893535,-0.5073911952132274,0.5073911952132274,-0.026591245768893535,644.9354794497139,369.85314432892704)" opacity="0.78"></path><path d="M596 301H646C674 301 696 323 696 351H646C618 351 596 329 596 301Z " transform="matrix(-0.3804676431213546,-0.13847889719758927,0.13847889719758927,-0.3804676431213546,846.637976969981,539.4898192472043)" opacity="0.62"></path><path d="M924 638H974C1002 638 1024 660 1024 688H974C946 688 924 666 924 638Z " transform="matrix(-0.30846689608408895,0.13733831060472385,-0.13733831060472385,-0.30846689608408895,1365.5020567168344,733.74603757475)" filter="url(#llleaves-blur-2)" opacity="0.52"></path><path d="M701 640H751C779 640 801 662 801 690H751C723 690 701 668 701 640Z " transform="matrix(-0.37314046251281346,0.006513191000506271,-0.006513191000506271,-0.37314046251281346,1035.5597593624598,908.2470011296407)" filter="url(#llleaves-blur-2)" opacity="0.57"></path><path d="M368 448H418C446 448 468 470 468 498H418C390 498 368 476 368 448Z " transform="matrix(-0.3003191580983216,-0.3335382154269627,0.3335382154269627,-0.3003191580983216,385.7698321881451,754.4699358289766)" opacity="0.69"></path></g><g fill="none" stroke-width="3" stroke="hsl(190, 100%, 70%)"><path d="M336 269H386C414 269 436 291 436 319H386C358 319 336 297 336 269Z " transform="matrix(-0.30043736664644793,-0.3336694993198716,0.3336694993198716,-0.30043736664644793,403.8699907254867,511.12501253152607)" opacity="0.69"></path><path d="M1121 19H1171C1199 19 1221 41 1221 69H1171C1143 69 1121 47 1121 19Z " transform="matrix(-0.2814287337168542,0.1690994431532515,-0.1690994431532515,-0.2814287337168542,1507.993422681179,-141.63258364891595)" filter="url(#llleaves-blur-2)" opacity="0.50"></path><path d="M166 123H216C244 123 266 145 266 173H216C188 173 166 151 166 123Z " transform="matrix(-0.3721286063404775,-0.18149924844984736,0.18149924844984736,-0.3721286063404775,269.5178901989657,242.27887140355773)" opacity="0.64"></path><path d="M162 236H212C240 236 262 258 262 286H212C184 286 162 264 162 236Z " transform="matrix(-0.3850139361202352,-0.08183723845675862,0.08183723845675862,-0.3850139361202352,272.2634352202759,378.8381318802142)" filter="url(#llleaves-blur-2)" opacity="0.60"></path><path d="M255 105H305C333 105 355 127 355 155H305C277 155 255 133 255 105Z " transform="matrix(-0.20755469672950932,-0.4255501920423384,0.4255501920423384,-0.20755469672950932,312.9826575369964,286.7749191477494)" opacity="0.73"></path><path d="M-7 635H43C71 635 93 657 93 685H43C15 685 -7 663 -7 635Z " transform="matrix(-0.07214160570208748,0.2515876777273357,-0.2515876777273357,-0.07214160570208748,212.14995634523135,696.7951896211023)" filter="url(#llleaves-blur-3)" opacity="0.40"></path><path d="M1336 233H1386C1414 233 1436 255 1436 283H1386C1358 283 1336 261 1336 233Z " transform="matrix(-0.1167230411214474,0.2503133694678658,-0.2503133694678658,-0.1167230411214474,1612.3589843170355,-58.819785473128604)" filter="url(#llleaves-blur-3)" opacity="0.42"></path><path d="M508 735H558C586 735 608 757 608 785H558C530 785 508 763 508 735Z " transform="matrix(-0.34756046274928554,-0.25251745724057895,0.25251745724057895,-0.34756046274928554,560.0254707112613,1165.0506928297)" opacity="0.66"></path><path d="M622 97H672C700 97 722 119 722 147H672C644 147 622 125 622 97Z " transform="matrix(-0.3226554796091833,-0.300881102360546,0.300881102360546,-0.3226554796091833,852.1169878093847,363.5560692986073)" opacity="0.68"></path><path d="M1047 118H1097C1125 118 1147 140 1147 168H1097C1069 168 1047 146 1047 118Z " transform="matrix(-0.3134282822298435,0.1330424124944051,-0.1330424124944051,-0.3134282822298435,1459.8558905928383,41.87271785250525)" filter="url(#llleaves-blur-2)" opacity="0.52"></path><path d="M862 158H912C940 158 962 180 962 208H912C884 208 862 186 862 158Z " transform="matrix(-0.32744169832740483,0.11274721847659,-0.11274721847659,-0.32744169832740483,1231.2595698558093,140.09636754326502)" filter="url(#llleaves-blur-2)" opacity="0.53"></path><path d="M1244 97H1294C1322 97 1344 119 1344 147H1294C1266 147 1244 125 1244 97Z " transform="matrix(-0.16169460725551282,0.23972211353602033,-0.23972211353602033,-0.16169460725551282,1532.478919640028,-168.47367283043775)" filter="url(#llleaves-blur-3)" opacity="0.44"></path><path d="M1318 13H1368C1396 13 1418 35 1418 63H1368C1340 63 1318 41 1318 13Z " transform="matrix(-0.02140061688375362,0.24461017029266116,-0.24461017029266116,-0.02140061688375362,1406.5712303680962,-295.8134895187778)" filter="url(#llleaves-blur-3)" opacity="0.37"></path><path d="M1067 514H1117C1145 514 1167 536 1167 564H1117C1089 564 1067 542 1067 514Z " transform="matrix(-0.25395025523367004,0.1913652433559703,-0.1913652433559703,-0.25395025523367004,1503.8083012648774,462.1242107423293)" filter="url(#llleaves-blur-2)" opacity="0.49"></path><path d="M1246 340H1296C1324 340 1346 362 1346 390H1296C1268 390 1246 368 1246 340Z " transform="matrix(-0.1723354924717369,0.23719945609359475,-0.23719945609359475,-0.1723354924717369,1605.924599717533,120.49195965488522)" filter="url(#llleaves-blur-3)" opacity="0.45"></path><path d="M991 460H1041C1069 460 1091 482 1091 510H1041C1013 510 991 488 991 460Z " transform="matrix(-0.2759674102613726,0.1724435767981194,-0.1724435767981194,-0.2759674102613726,1411.9172088291768,439.33043052992343)" filter="url(#llleaves-blur-2)" opacity="0.50"></path><path d="M227 541H277C305 541 327 563 327 591H277C249 591 227 569 227 541Z " transform="matrix(-0.3590675131975839,-0.22437028426346806,0.22437028426346806,-0.3590675131975839,249.46812026260784,831.3827812108132)" opacity="0.65"></path><path d="M822 717H872C900 717 922 739 922 767H872C844 767 822 745 822 717Z " transform="matrix(-0.3372170933308546,0.09669544551162003,-0.09669544551162003,-0.3372170933308546,1237.8013259541272,907.8966547653613)" filter="url(#llleaves-blur-2)" opacity="0.54"></path><path d="M817 498H867C895 498 917 520 917 548H867C839 548 817 526 817 498Z " transform="matrix(-0.3372170933308546,0.09669544551162003,-0.09669544551162003,-0.3372170933308546,1209.9389379204283,615.5295885534624)" filter="url(#llleaves-blur-2)" opacity="0.54"></path><path d="M740 354H790C818 354 840 376 840 404H790C762 404 740 382 740 354Z " transform="matrix(-0.3653057311291817,0.03196011019485281,-0.03196011019485281,-0.3653057311291817,1090.7044093559027,492.2023850440262)" filter="url(#llleaves-blur-2)" opacity="0.56"></path><path d="M992 357H1042C1070 357 1092 379 1092 407H1042C1014 407 992 385 992 357Z " transform="matrix(-0.2759674102613726,0.1724435767981194,-0.1724435767981194,-0.2759674102613726,1395.4314878292319,307.7333436962039)" filter="url(#llleaves-blur-2)" opacity="0.50"></path><path d="M94 34H144C172 34 194 56 194 84H144C116 84 94 62 94 34Z " transform="matrix(-0.35905621612549177,-0.22436322506935139,0.22436322506935139,-0.35905621612549177,182.46666484297907,112.49262116139062)" opacity="0.65"></path><path d="M412 340H462C490 340 512 362 512 390H462C434 390 412 368 412 340Z " transform="matrix(-0.3044990514894006,-0.32653525504942754,0.32653525504942754,-0.3044990514894006,483.493193695062,627.0014416264668)" opacity="0.69"></path><path d="M634 461H684C712 461 734 483 734 511H684C656 511 634 489 634 461Z " transform="matrix(-0.38334230273218367,-0.06071545607095581,0.06071545607095581,-0.38334230273218367,916.6984234183292,713.833731080375)" filter="url(#llleaves-blur-2)" opacity="0.60"></path><path d="M1329 396H1379C1407 396 1429 418 1429 446H1379C1351 446 1329 424 1329 396Z " transform="matrix(-0.1167230411214474,0.2503133694678658,-0.2503133694678658,-0.1167230411214474,1645.3430022524476,124.95826381594236)" filter="url(#llleaves-blur-3)" opacity="0.42"></path><path d="M871 12H921C949 12 971 34 971 62H921C893 62 871 40 871 12Z " transform="matrix(-0.32638736785708244,-0.2938805060262438,0.2938805060262438,-0.32638736785708244,1210.7291870734018,319.74027866088267)" opacity="0.67"></path><path d="M242 208H292C320 208 342 230 342 258H292C264 258 242 236 242 208Z " transform="matrix(-0.3590675131975839,-0.22437028426346806,0.22437028426346806,-0.3590675131975839,344.5694376203064,382.1788535799697)" opacity="0.65"></path><path d="M624 730H674C702 730 724 752 724 780H674C646 780 624 758 624 730Z " transform="matrix(-0.3845856491475145,-0.09588797182409789,0.09588797182409789,-0.3845856491475145,860.8153087982308,1109.9906581158154)" filter="url(#llleaves-blur-2)" opacity="0.61"></path><path d="M1150 467H1200C1228 467 1250 489 1250 517H1200C1172 517 1150 495 1150 467Z " transform="matrix(-0.21687438271511209,0.2168743827151121,-0.2168743827151121,-0.21687438271511209,1566.95145555397,338.4529370377006)" filter="url(#llleaves-blur-2)" opacity="0.47"></path><path d="M11 731H61C89 731 111 753 111 781H61C33 781 11 759 11 731Z " transform="matrix(-0.14701141449711697,0.24466808081887922,-0.24466808081887922,-0.14701141449711697,254.93676538339682,852.2158764298688)" filter="url(#llleaves-blur-3)" opacity="0.44"></path><path d="M1074 405H1124C1152 405 1174 427 1174 455H1124C1096 455 1074 433 1074 405Z " transform="matrix(-0.25395025523367004,0.1913652433559703,-0.1913652433559703,-0.25395025523367004,1491.7271415257126,324.1040762183675)" filter="url(#llleaves-blur-2)" opacity="0.49"></path><path d="M123 557H173C201 557 223 579 223 607H173C145 607 123 585 123 557Z " transform="matrix(-0.3453279126716692,0.0797252305436746,-0.0797252305436746,-0.3453279126716692,279.14181306861735,769.1883802908558)" filter="url(#llleaves-blur-2)" opacity="0.54"></path><path d="M85 645H135C163 645 185 667 185 695H135C107 695 85 673 85 645Z " transform="matrix(-0.29340010684657347,0.15600360406080885,-0.15600360406080885,-0.29340010684657347,279.1314291450293,845.517585038995)" filter="url(#llleaves-blur-2)" opacity="0.51"></path><path d="M1241 428H1291C1319 428 1341 450 1341 478H1291C1263 478 1241 456 1241 428Z " transform="matrix(-0.1723354924717369,0.23719945609359475,-0.23719945609359475,-0.1723354924717369,1620.9364743914107,224.84348027286603)" filter="url(#llleaves-blur-3)" opacity="0.45"></path><path d="M397 10H447C475 10 497 32 497 60H447C419 60 397 38 397 10Z " transform="matrix(0.15765527494871934,-0.5156671688838558,0.5156671688838558,0.15765527494871934,358.4797411869875,259.98528986787835)" opacity="0.83"></path><path d="M728 729H778C806 729 828 751 828 779H778C750 779 728 757 728 729Z " transform="matrix(-0.3653057311291817,0.03196011019485281,-0.03196011019485281,-0.3653057311291817,1086.3057819054225,1004.5755555398075)" filter="url(#llleaves-blur-2)" opacity="0.56"></path><path d="M298 638H348C376 638 398 660 398 688H348C320 688 298 666 298 638Z " transform="matrix(-0.3178173795189866,-0.3069126758400851,0.3069126758400851,-0.3178173795189866,255.1173439906309,980.5185338134377)" opacity="0.68"></path><path d="M192 21H242C270 21 292 43 292 71H242C214 71 192 49 192 21Z " transform="matrix(0.027067687909479773,-0.5164822528215507,0.5164822528215507,0.027067687909479773,211.69143589611457,169.74359153897916)" opacity="0.79"></path><path d="M1326 480H1376C1404 480 1426 502 1426 530H1376C1348 530 1326 508 1326 480Z " transform="matrix(-0.1167230411214474,0.2503133694678658,-0.2503133694678658,-0.1167230411214474,1663.0191561643837,219.5139393785476)" filter="url(#llleaves-blur-3)" opacity="0.42"></path><path d="M435 520H485C513 520 535 542 535 570H485C457 570 435 548 435 520Z " transform="matrix(-0.31815074915071895,-0.3072346071513106,0.3072346071513106,-0.31815074915071895,471.86025244063444,867.4009427555274)" opacity="0.68"></path><path d="M1053 632H1103C1131 632 1153 654 1153 682H1103C1075 682 1053 660 1053 632Z " transform="matrix(-0.25395025523367004,0.1913652433559703,-0.1913652433559703,-0.25395025523367004,1508.8340964076106,612.769454266886)" filter="url(#llleaves-blur-2)" opacity="0.49"></path><path d="M815 612H865C893 612 915 634 915 662H865C837 662 815 640 815 612Z " transform="matrix(-0.3372170933308546,0.09669544551162003,-0.09669544551162003,-0.3372170933308546,1218.2877845220912,768.165728084203)" filter="url(#llleaves-blur-2)" opacity="0.54"></path><path d="M482 161H532C560 161 582 183 582 211H532C504 211 482 189 482 161Z " transform="matrix(-0.3344137398428579,-0.28060644576275684,0.28060644576275684,-0.3344137398428579,657.7153106845276,397.48358475655823)" opacity="0.67"></path><path d="M1251 674H1301C1329 674 1351 696 1351 724H1301C1273 724 1251 702 1251 674Z " transform="matrix(-0.1723354924717369,0.23719945609359475,-0.23719945609359475,-0.1723354924717369,1691.0108955151525,510.8660168599773)" filter="url(#llleaves-blur-3)" opacity="0.45"></path></g></svg>