<svg xmlns="http://www.w3.org/2000/svg" version="1.1" xmlns:xlink="http://www.w3.org/1999/xlink" xmlns:svgjs="http://svgjs.dev/svgjs" viewBox="0 0 1422 800"><defs><filter id="llleaves-blur-2" x="-100%" y="-100%" width="400%" height="400%"><feGaussianBlur in="SourceGraphic" stdDeviation="2"></feGaussianBlur></filter><filter id="llleaves-blur-3" x="-100%" y="-100%" width="400%" height="400%"><feGaussianBlur in="SourceGraphic" stdDeviation="4"></feGaussianBlur></filter><filter id="llleaves-blur-4" x="-100%" y="-100%" width="400%" height="400%"><feGaussianBlur in="SourceGraphic" stdDeviation="12"></feGaussianBlur></filter></defs><g fill="none" stroke-width="3" stroke="hsl(190, 100%, 70%)"><path d="M1301 388H1351C1379 388 1401 410 1401 438H1351C1323 438 1301 416 1301 388Z " transform="matrix(-0.3801661355394748,-0.14593210677200366,0.14593210677200366,-0.3801661355394748,1804.334489016993,767.1628902267801)" opacity="0.62"></path><path d="M158 319H208C236 319 258 341 258 369H208C180 369 158 347 158 319Z " transform="matrix(-0.08171934524512424,0.25150628352965976,-0.25150628352965976,-0.08171934524512424,311.5157853451888,319.7981477901535)" filter="url(#llleaves-blur-3)" opacity="0.40"></path><path d="M664 694H714C742 694 764 716 764 744H714C686 744 664 722 664 694Z " transform="matrix(-0.3540191735641148,-0.23878894769451253,0.23878894769451253,-0.3540191735641148,795.0804365324234,1144.0350944464806)" opacity="0.66"></path><path d="M1277 220H1327C1355 220 1377 242 1377 270H1327C1299 270 1277 248 1277 220Z " transform="matrix(-0.3848798700664204,-0.06786470542427826,0.06786470542427826,-0.3848798700664204,1821.1087347491916,429.35203226429024)" filter="url(#llleaves-blur-2)" opacity="0.60"></path><path d="M1273 698H1323C1351 698 1373 720 1373 748H1323C1295 748 1273 726 1273 698Z " transform="matrix(-0.3848798700664204,-0.06786470542427826,0.06786470542427826,-0.3848798700664204,1783.129886076121,1091.0531513343421)" filter="url(#llleaves-blur-2)" opacity="0.60"></path><path d="M976 304H1026C1054 304 1076 326 1076 354H1026C998 354 976 332 976 304Z " transform="matrix(-0.3779700235748045,-0.013199004068046177,0.013199004068046177,-0.3779700235748045,1409.4547718493623,466.89431592992605)" filter="url(#llleaves-blur-2)" opacity="0.58"></path><path d="M131 156H181C209 156 231 178 231 206H181C153 206 131 184 131 156Z " transform="matrix(-0.05794200680101054,0.2509744045661858,-0.2509744045661858,-0.05794200680101054,236.9138704574625,146.06113600450328)" filter="url(#llleaves-blur-3)" opacity="0.39"></path><path d="M709 352H759C787 352 809 374 809 402H759C731 402 709 380 709 352Z " transform="matrix(-0.35108559933541433,-0.2458327832115308,0.2458327832115308,-0.35108559933541433,932.7950106248323,695.946353407003)" opacity="0.66"></path><path d="M28 683H78C106 683 128 705 128 733H78C50 733 28 711 28 683Z " transform="matrix(-0.008398819354148174,0.2405107183028424,-0.2405107183028424,-0.008398819354148174,248.93669646803596,695.1865280751152)" filter="url(#llleaves-blur-3)" opacity="0.37"></path><path d="M866 414H916C944 414 966 436 966 464H916C888 464 866 442 866 414Z " transform="matrix(-0.3754845744230432,-0.16717650342400656,0.16717650342400656,-0.3754845744230432,1186.5533851683688,756.9714053081059)" opacity="0.63"></path><path d="M225 38H275C303 38 325 60 325 88H275C247 88 225 66 225 38Z " transform="matrix(-0.30906170642930253,0.1376031372327312,-0.1376031372327312,-0.30906170642930253,368.66096691372024,44.630024766044976)" filter="url(#llleaves-blur-2)" opacity="0.52"></path><path d="M331 607H381C409 607 431 629 431 657H381C353 657 331 635 331 607Z " transform="matrix(-0.23139515959271015,0.2083491375282204,-0.2083491375282204,-0.23139515959271015,600.8382107226579,698.8607194643408)" filter="url(#llleaves-blur-2)" opacity="0.48"></path><path d="M25 461H75C103 461 125 483 125 511H75C47 511 25 489 25 461Z " transform="matrix(-0.008398819354148174,0.2405107183028424,-0.2405107183028424,-0.008398819354148174,192.51812054674247,472.04352233340285)" filter="url(#llleaves-blur-3)" opacity="0.37"></path><path d="M759 55H809C837 55 859 77 859 105H809C781 105 759 83 759 55Z " transform="matrix(-0.22700355463247798,-0.40952525317335614,0.40952525317335614,-0.22700355463247798,959.8838554438062,429.4662141878433)" opacity="0.72"></path><path d="M882 571H932C960 571 982 593 982 621H932C904 621 882 599 882 571Z " transform="matrix(-0.38165169539754745,-0.13141321738419187,0.13141321738419187,-0.38165169539754745,1209.377102549536,945.941529059005)" opacity="0.62"></path><path d="M13 261H63C91 261 113 283 113 311H63C35 311 13 289 13 261Z " transform="matrix(-0.008398819354148174,0.2405107183028424,-0.2405107183028424,-0.008398819354148174,132.31519105392425,273.2498870822073)" filter="url(#llleaves-blur-3)" opacity="0.37"></path><path d="M641 204H691C719 204 741 226 741 254H691C663 254 641 232 641 204Z " transform="matrix(-0.3592263365891756,-0.22446952813324,0.22446952813324,-0.3592263365891756,887.8218766406084,466.37127501899005)" opacity="0.65"></path><path d="M469 209H519C547 209 569 231 569 259H519C491 259 469 237 469 209Z " transform="matrix(-0.37044732621153326,0.019414321708086792,-0.019414321708086792,-0.37044732621153326,715.805113583478,310.6086413670017)" filter="url(#llleaves-blur-2)" opacity="0.57"></path><path d="M1118 49H1168C1196 49 1218 71 1218 99H1168C1140 99 1118 77 1118 49Z " transform="matrix(-0.3091083300321837,0.13762389539814635,-0.13762389539814635,-0.3091083300321837,1539.2226977370533,-63.87069340265333)" filter="url(#llleaves-blur-2)" opacity="0.52"></path><path d="M226 715H276C304 715 326 737 326 765H276C248 765 226 743 226 715Z " transform="matrix(-0.1319012905914247,0.24807024802862976,-0.24807024802862976,-0.1319012905914247,495.97673974441926,769.1395665817524)" filter="url(#llleaves-blur-3)" opacity="0.43"></path><path d="M459 708H509C537 708 559 730 559 758H509C481 758 459 736 459 708Z " transform="matrix(-0.37044732621153326,0.019414321708086792,-0.019414321708086792,-0.37044732621153326,711.7883868536981,994.6560003636375)" filter="url(#llleaves-blur-2)" opacity="0.57"></path><path d="M1141 371H1191C1219 371 1241 393 1241 421H1191C1163 421 1141 399 1141 371Z " transform="matrix(-0.3425598993225171,0.08540977555224424,-0.08540977555224424,-0.3425598993225171,1632.8111112118067,429.9306774489939)" filter="url(#llleaves-blur-2)" opacity="0.54"></path><path d="M290 186H340C368 186 390 208 390 236H340C312 236 290 214 290 186Z " transform="matrix(-0.19718086203900934,0.22683063419828067,-0.22683063419828067,-0.19718086203900934,454.9027569091004,175.48274626281554)" filter="url(#llleaves-blur-2)" opacity="0.46"></path></g></svg>